<?xml version="1.0" encoding="iso-8859-1"?>
<!-- Generator: Adobe Illustrator 19.0.0, SVG Export Plug-In . SVG Version: 6.00 Build 0)  -->
<svg version="1.1" id="Layer_1" xmlns="http://www.w3.org/2000/svg" xmlns:xlink="http://www.w3.org/1999/xlink" x="0px" y="0px"
	 viewBox="0 0 512 512" style="enable-background:new 0 0 512 512;" xml:space="preserve">
<g>
	<g>
		<path d="M453.333,128.075c0,0,0,0,0-0.075V43.381C453.333,19.861,432.981,0,408.885,0H59.435
			C35.472,0.012,16.041,19.419,16,43.381v425.237c0.041,23.963,19.472,43.37,43.435,43.381h233.899
			c1.306-0.018,2.597-0.279,3.808-0.768c2.504,0.479,5.045,0.736,7.595,0.768h147.861c23.961-0.023,43.379-19.442,43.403-43.403
			V171.403C495.957,147.748,476.985,128.482,453.333,128.075z M59.435,490.667c-12.185,0-22.072-9.863-22.101-22.048V43.381
			c0.029-12.185,9.916-22.048,22.101-22.048h349.451c12.533,0,23.115,10.091,23.115,22.048V128h-10.667V53.333
			c0-5.891-4.776-10.667-10.667-10.667h-352C52.776,42.667,48,47.442,48,53.333V448c0,5.891,4.776,10.667,10.667,10.667h202.667
			v9.931c0.04,7.786,2.197,15.415,6.24,22.069H59.435z M261.333,171.403v265.931h-192V64H400v64h-95.264
			C280.775,128.023,261.357,147.442,261.333,171.403z M474.667,468.597c-0.018,12.181-9.888,22.052-22.069,22.069H304.736
			c-12.181-0.018-22.052-9.888-22.069-22.069v-31.264h192V468.597z M474.667,416h-192V202.667h192V416z M474.667,181.333h-192
			v-9.931c0.018-12.181,9.888-22.052,22.069-22.069h147.861c12.181,0.018,22.052,9.888,22.069,22.069V181.333z"/>
	</g>
</g>
<g>
</g>
<g>
</g>
<g>
</g>
<g>
</g>
<g>
</g>
<g>
</g>
<g>
</g>
<g>
</g>
<g>
</g>
<g>
</g>
<g>
</g>
<g>
</g>
<g>
</g>
<g>
</g>
<g>
</g>
</svg>
